<svg xmlns="http://www.w3.org/2000/svg" viewBox="0 0 850 450"><path d="M848.8 309.8c-3.7 0-4.6 4-4.6 4v12.6h-7.3v-10.8H825V328h-3.7v3.5h1.5v89h-4.9v-89h1.5V328h-2.8v-12.5s-.3-5.7-4.1-5.7c-4.3 0-5.1 3.7-5.1 3.7s-.5-3.9-4.7-3.9-4.8 5.9-4.8 5.9v12.2h-6.8v-11.6h-12.2v11.6H775v4.3h1v61.5h-4.1V224.6h-6.7V206h-4.9v-14.2l-4.4-4.8-4.2 4.8v11.5h-5.5v20.9h-9.4v5h-4.6v99.1h-3.4v56h-23.4V154h-4.7v-6.6h-9.9v-25.2l-6.2-9.8-6.5 9.8v25h-10.6v98.3h-2.8v-19.9h-10.9v-18.4H651V185h-16v22.2h-16.9v69.3h-6.3v16.4h-5.9v-8.8h2.4v-13.9l-4.9-3.8-4.4 3.8v13.9h2.4v8.6h-6.3v47.6h-3.6v-98.1h-5.9V237h-12.5v-19.7H565v-11.8l-5.9-4.3-6.5 4.5v11.6h-6.3v18.9h-5.9v5.8h1.5v88h-5.4V204h-16.1v-21.2H505v21.4h-3.9v123.5H493v-14.9l-2.8-2.8v-17.4l-15.9.3V280h-16.1v12.9H454v34.8h-1.8v26.5h-3.4v-26.5h-2.6V268h-2.3v-16.4h-16.4v16.6l-3.3-9.6v-16.1l-4.7-4-4.2 3.3v16.9l-4.6 9.3v25.2H408v35h-2.4v56h-3.4v-42.6h-14.3v11.6h-4.4v-12.4H377V335h-11.9v-56.5h-5.5l-23.1-21.4v19.4h-9.9v-16.1H314v-99.8h-6.3v-23.7H302v-6.6l-5.9-4.5-5.9 4.8v10.8H283V159h-12.7v6.8h-5.5v161.8h-3.4v-31.3h-3.9v-3.5h-9.4v-15.4h-5.4v-7.1l-5-3.5-4.1 3.3v9.3H229v13.4h-5.2v61.8h-2.9V390h-7.3v-96.8h-15.9v-13.9h-15.6v13.6h-4.2v62.5h-3.6V385h-2.8v-57h-2.1v-15.6l-4.2-2.8-3.9 3.5-4.6-3.5-5 4.5v7.3h-2.3v6.1h-4.9v-11.6H133v11.8h-3.4v56.4h-13.5V371h-7v-53.4H82.4V168.2h-4.7v-26.7H58.9v26.7H52V153h3v-25.2l-6.7-6.3-5.4 6.1v25.2h2.6v15.4h-7.8v38.6H11.4v5.8h3.9v25.7H8v39.3H0v172.2h850V310c-.4-.1-.8-.2-1.2-.2z" fill="#2b3990"/><path d="M838.5 266.9v16.4h-3.9v25.3H820v-69h-5.7v-19.4h-5.2v-10.5l-5.2-5.2-4.3 4.3v11.4h-5.7v19.4h-10.3v5.2h-5v168.1h-28.9V294.5H734V279h-7v-7.7l-4.5-4.5-4.3 4.3v10h-5.7v13.2h-4.3v72.8h-11.1v-8.6h-13.6v8.2H655v71h-6.8v-66h2.1v-4.6h-3.2v-9.3h-13.2v9.6h-29.6v50.7h-4.6V288.3h2.5v-5h-5v-15h-20v15h-8.9v-8.6h2.9v-15l-6.1-4.3-6.4 4.3v15h2.9v8.9h-6.8V406h-7.5v-63.9h-3.6v-10h-17.5V326l-5-3.9-5.4 3.9v15.7h-7.9v-15.3H476v15h-30.3v17.1h-14.3v8.6H426V355h-24.3v30.3H395v-89.9l-5.4-4.6-4.3 4.3v7.5l-3.9-3.6-6.1 3.6v6.8h-8.2v8.9H356v5.7h-6.1v52.8h-26v21.1h-9.6v9.3h-16.8v28.2h-11.8v-28.5h-9.3V396h-18.9v8.6h-11.1v6.8h-12.5v-84.6H212v8.6h-9.3v11.8H197v-12.5h-7.5v-30H185v-20.9l-4.1-4.1-3.2 3.2v21.8h-6.4v-13.6h-17.1V305h-4.3v101.3h-4.6V261.2h-4.6v-28.9h-12.1v28.9h-5.7v101.3H119V334H94.9v33.5h-6.8v-15.3H74.6v5.7h-6.1v8.2H65v-9.3H50.3v11.1h-3.2v38.9h-6.4v-64.2h-5.4v-11.4h-8.9v-29.3h-6.8v-16.4H16V274H0v176.9c158.6-.1 612.6 0 850 .1V266.9h-11.5z" fill="#262262"/></svg>