<svg xmlns="http://www.w3.org/2000/svg" viewBox="0 0 590.9 314.2"><path d="M556.4 69.9h-1c0-8.8-8.4-15.9-18.8-15.9-5.3 0-10.4 1.9-14 5.3-8.5-4.8-18.5-7.4-28.7-7.4-2.2 0-4.5.1-6.7.4-5.6-12.3-19.5-20.4-35.1-20.4-8-23.1-36.6-36.4-63.9-29.6-19 4.7-33.1 18.2-36.4 34.7h-.7c-1.8 0-3.7.1-5.5.2-10.8-15-33.9-19.8-51.6-10.7-2.7 1.4-5.1 3-7.3 4.9-9.7-4.4-20.9-6-31.8-4.6-2.6-6.5-9.7-10.9-17.8-10.9h-.9C225.9.7 202.9-4.5 184.9 4.3c-9.7 4.7-16.4 12.9-18.3 22.3h-.5c-9 0-17.7 2.7-24.6 7.7C125.9 14.1 94 8.4 70.2 21.6c-13.3 7.4-21.8 19.6-23.1 33C27 50.2 6.5 60.4 1.3 77.4.5 80 .1 82.7.1 85.4v228.8h590.8s-1.6-199.8 0-221.2v-1.2c-.7-11.1-21.8-21.9-34.5-21.9z" opacity=".4" fill="#74d6ff"/><path d="M590.9 167.8c-8.7-4-25.8-.6-30.6 6.6-.3.5-.6.9-.8 1.4-2-.2-4.2-.3-6.2-.3-1.3 0-2.7.1-4.1.1.1-1 .1-2.1.1-3.1 0-25-24.4-45.2-54.6-45.2-7.6 0-15 1.3-21.9 3.8.8-2.6 1.2-5.3 1.2-8 0-17.7-17.4-32.1-38.7-32.1-15.7 0-30 7.9-36 20-12.3 2.1-23.2 7.6-31.2 15.6-18.3-9-41.3-8.3-58.9 1.8-3.3-.7-6.5-1-9.9-1-1.3 0-2.7.1-4 .2.2-1.4.2-2.9.2-4.3.4-25-23.6-45.5-53.9-45.9-30.2-.4-55 19.6-55.4 44.6V123.4c-5.3.4-10.5 1.7-15.2 3.8-17.6-20.3-51.7-25-76.3-10.4-11.2 6.6-18.9 16.5-21.7 27.7-19.1-8-42.4-1.6-52.1 14.3-2.2 3.8-3.7 7.9-4 12-.8-.1-1.6-.2-2.6-.2-5.8 0-10.9 2.3-14.2 5.8v137.8h590.8V167.8z" opacity=".2" fill="#7ff2ff"/></svg>